# xmcd
#
# Track frame offsets:
#	150
#	15485
#	29855
#	48262
#	66381
#	84723
#	101716
#	119971
#	138265
#	157406
#	175193
#	192849
#	207115
#	217370
#	232673
#	251074
#	271924
#	283358
#	300518
#	317635
#
# Disc length: 4457
#
# Revision: 1
# Processed by: cddbd v1.5.2PL0 Copyright (c) Steve Scherf et al.
# Submitted via: kJams Lite (development) 1.0patch52.50
#
DISCID=37116714
DTITLE=Various Artist - 100 Hits presents No.1s Karaoke disc 2
DYEAR=1999
DGENRE=Pop
TTITLE0=JLS - Everybody In Love
TTITLE1=Katy Perry - I Kissed A Girl
TTITLE2=Lady GaGa - Poker Face
TTITLE3=Rihanna feat. Jay–Z - Umbrella
TTITLE4=Ronan Keating - Life Is A Rollercoaster
TTITLE5=Britney Spears - ...Baby One More Time
TTITLE6=Beyoncé feat. Jay–Z - Crazy In Love
TTITLE7=Boyzone - No Matter What
TTITLE8=Elton John and Kiki Dee - Don't Go Breaking My Heart
TTITLE9=Frankie Goes To Hollywood - Relax
TTITLE10=Girls Aloud - The Promise
TTITLE11=Gnarls Barkley - Crazy
TTITLE12=Tom Jones - It's Not Unusual
TTITLE13=Tony Christie - (Is This The Way To) Amarillo
TTITLE14=Wham! - Wake Me Up Before You Go Go
TTITLE15=Steps - Tragedy
TTITLE16=Beatles, The - She Loves You
TTITLE17=DJ Otzi - Hey Baby (Uhh, Ahh)
TTITLE18=Christina Aguilera - Genie In A Bottle
TTITLE19=James Blunt - You're Beautiful
EXTD=
EXTT0=
EXTT1=
EXTT2=
EXTT3=
EXTT4=
EXTT5=
EXTT6=
EXTT7=
EXTT8=
EXTT9=
EXTT10=
EXTT11=
EXTT12=
EXTT13=
EXTT14=
EXTT15=
EXTT16=
EXTT17=
EXTT18=
EXTT19=
PLAYORDER=
